<?xml version="1.0" standalone="no"?>
<!DOCTYPE svg PUBLIC "-//W3C//DTD SVG 20010904//EN" "http://www.w3.org/TR/2001/REC-SVG-20010904/DTD/svg10.dtd">
<!-- Created using Krita: https://krita.org -->
<svg xmlns="http://www.w3.org/2000/svg" 
    xmlns:xlink="http://www.w3.org/1999/xlink"
    xmlns:krita="http://krita.org/namespaces/svg/krita"
    xmlns:sodipodi="http://sodipodi.sourceforge.net/DTD/sodipodi-0.dtd"
    width="162.72pt"
    height="165.12pt"
    viewBox="0 0 162.72 165.12">
<defs/>
<rect id="shape0" transform="matrix(0.999999971989012 0 0 0.999999971989012 -0.240001799721097 -0.23998606924425)" fill="#343436" fill-rule="evenodd" stroke-opacity="0" stroke="#000000" stroke-width="0" stroke-linecap="square" stroke-linejoin="bevel" width="163.44" height="165.84"/><text id="shape01" krita:useRichText="false" krita:textVersion="2" transform="matrix(1.0331006020697 0.655100234959048 -0.642277895671225 1.01287962559725 19.7115469254513 84.4007796811763)" fill="#65daff" stroke-opacity="0" stroke="#000000" stroke-width="0" stroke-linecap="square" stroke-linejoin="bevel"></text><text id="shape1" krita:useRichText="true" krita:textVersion="2" transform="matrix(1.0331006020697 0.655100234959048 -0.642277895671225 1.01287962559725 38.3960264198026 83.2343618999138)" fill="#539db4" stroke-opacity="0" stroke="#000000" stroke-width="0" stroke-linecap="square" stroke-linejoin="bevel" font-family="Impact" font-size="72" font-size-adjust="0.2" font-stretch="normal" letter-spacing="0" word-spacing="0"><tspan x="0">$</tspan></text><path id="shape02" transform="matrix(0.999999971989012 0 0 0.999999971989012 81.0383028623733 33.6337903174538)" fill="#60d56f" fill-rule="evenodd" stroke="#60d56f" stroke-width="1.2" stroke-linecap="square" stroke-linejoin="bevel" d="M1.60555 0L1.7607 1.10309L1.7607 2.10011L2.26981 2.94863L2.03647 3.96687L1.80312 4.03051L1.95161 4.9851L0.933381 5.68514L0.148492 6.66095L0 7.33977L0.190919 8.44285L0.615183 9.82171L1.4425 9.29138L1.99404 8.84591L3.0547 8.54892L4.07293 8.84591L5.43058 8.63377L6.13062 8.48528L7.14885 8.65499L7.99738 9.1641L9.10046 9.4823L9.67322 9.90657L9.4823 8.93076L10.0763 8.80348L10.3308 8.97318L9.99142 8.0398L10.6915 7.63675L10.8612 7.33977L12.2612 7.72161L13.1522 8.59135L13.2583 7.50947L13.0673 6.93672L13.6825 6.7458L14.3401 6.93672L14.425 6.27911L14.722 6.04576L15.6553 6.00334L15.5917 5.34573L16.8009 5.45179L17.7767 5.89727L14.722 4.53963C14.3048 4.26385 13.8876 3.98808 13.4704 3.71231C12.0482 2.85402 12.9856 2.55784 15.5002 1.77131C14.3794 1.56237 13.2587 1.32284 12.1379 1.18796C11.9658 3.2442 10.3288 2.53182 8.35136 1.49556C7.37202 1.15968 6.39268 0.823806 5.41333 0.487931C4.17457 0.254576 2.84431 0.233354 1.60555 0Z" sodipodi:nodetypes="ccccccccccccccccccccccccccccccccccccccccccccccc"/><path id="shape11" transform="matrix(0.999999971989012 0 0 0.999999971989012 72.7691148151034 34.6732554339653)" fill="#60d56f" fill-rule="evenodd" stroke="#60d56f" stroke-width="1.2" stroke-linecap="square" stroke-linejoin="bevel" d="M3.27744 0L2.25921 0.403052L2.70468 1.21976L3.66988 2.25921L3.57442 2.48195L2.47134 1.27279L1.89858 1.21976L1.56978 1.75009L1.73948 2.90621L1.66524 3.42593L1.18794 2.21678L0.731856 2.13193L0.763675 2.90621L0.795495 3.34108L0.403051 2.52437L0 1.86676L0.19089 1.66428L0.859134 1.08187L0.997021 2.29103L1.46371 1.59099L1.87737 1.14551L2.33345 0.975808L1.86676 0.551544L2.5668 0.201526Z" sodipodi:nodetypes="ccccccccccccccccccccccccc"/><path id="shape2" transform="matrix(0.999999971989012 0 0 0.999999971989012 65.4150003940084 37.110021949556)" fill="#60d56f" fill-rule="evenodd" stroke="#60d56f" stroke-width="0.24" stroke-linecap="square" stroke-linejoin="bevel" d="M5.88 0.06L6.24 0.615L6.45 1.23L6.225 1.695L6.195 2.25L6.48 2.97L7.02 3.39L7.77 3.45L8.13 3.345L8.175 4.275L8.1 5.16L8.205 5.895L8.61 6.57L8.685 6.81L7.935 6.825L7.74 7.23L7.95 7.5L8.475 7.665L8.805 7.86L9 8.01L8.73 8.46L8.385 8.43L6.975 8.01L5.61 7.365L4.695 6.9L3.285 6.93L2.565 7.305L2.97 7.725L3.93 7.77L4.755 7.755L4.485 7.905L4.05 7.965L3.99 8.355L4.065 8.775L4.44 9.24L4.35 9.3L3.645 9L2.715 8.745L1.725 8.685L1.305 8.865L0.63 9.3L0 9.21L1.155 6.345L2.715 3.66L4.38 1.395L5.79 0L5.79 0Z" sodipodi:nodetypes="cccccccccccccccccccccccccccccccccccccccccccccccc"/><path id="shape3" transform="matrix(0.999999971989012 0 0 0.999999971989012 90.0600008063836 43.2975228362761)" fill="#60d56f" fill-rule="evenodd" stroke="#60d56f" stroke-width="0.24" stroke-linecap="square" stroke-linejoin="bevel" d="M0 0.45L0.9075 1.26L1.05 1.1625L0.51 0.525L0.21 0Z" sodipodi:nodetypes="cccccc"/><path id="shape4" transform="matrix(0.999999971989012 0 0 0.999999971989012 91.0500008071927 42.7350228358163)" fill="#60d56f" fill-rule="evenodd" stroke="#60d56f" stroke-width="0.24" stroke-linecap="square" stroke-linejoin="bevel" d="M0 0.1425L0.885 0.9675L1.1925 1.44L0.255 0L0.24 0Z" sodipodi:nodetypes="cccccc"/><path id="shape5" transform="matrix(0.999999971989012 0 0 0.999999971989012 90.9225012644972 42.7800228358538)" fill="#60d56f" fill-rule="evenodd" stroke="#60d56f" stroke-width="0.24" stroke-linecap="square" stroke-linejoin="bevel" d="M0.375 0L0 0.135001Z" sodipodi:nodetypes="ccc"/><path id="shape6" transform="matrix(0.999999971989012 0 0 0.999999971989012 69.1787713973904 46.9132546823898)" fill="#60d56f" fill-rule="evenodd" stroke="#60d56f" stroke-width="0.24" stroke-linecap="square" stroke-linejoin="bevel" d="M0 0L0.880348 0.0212132Z" sodipodi:nodetypes="ccc"/><path id="shape7" transform="matrix(0.999999971989012 0 0 0.999999971989012 71.1409925949937 45.1790754077509)" fill="#60d56f" fill-rule="evenodd" stroke="#60d56f" stroke-width="0.24" stroke-linecap="square" stroke-linejoin="bevel" d="M0 0L0.270468 0.360624Z" sodipodi:nodetypes="ccc"/><path id="shape8" transform="matrix(0.999999971989012 0 0 0.999999971989012 72.4986375317148 46.3882279295174)" fill="#60d56f" fill-rule="evenodd" stroke="#60d56f" stroke-width="0.24" stroke-linecap="square" stroke-linejoin="bevel" d="M0 0.318198L0.365928 0.763675L0.965201 1.06596L1.07657 1.59629L1.15612 1.75539L1.41598 1.25688L1.30992 0.763675L0.848528 0.238649L0.917471 0.053033L0.641699 0L0.0477297 0.281075Z" sodipodi:nodetypes="cccccccccccc"/><path id="shape9" transform="matrix(0.999999971989012 0 0 0.999999971989012 79.9179642482951 39.9023105677324)" fill="#60d56f" fill-rule="evenodd" stroke="#60d56f" stroke-width="0.24" stroke-linecap="square" stroke-linejoin="bevel" d="M0.837922 0L0 0.307591L0.318198 0.604576L0.296985 0.933381L0.0318198 1.54856L0.159099 2.47134L0.371231 3.2138L0.837922 4.0199L1.21976 4.48659L1.80312 4.21082L2.01525 3.77595L1.4425 2.06829Z" sodipodi:nodetypes="ccccccccccccc"/><path id="shape10" transform="matrix(0.999999971989012 0 0 0.999999971989012 95.3025094305978 36.0150389970527)" fill="#60d56f" fill-rule="evenodd" stroke="#60d56f" stroke-width="0.24" stroke-linecap="square" stroke-linejoin="bevel" d="M0 0.285L0.67875 0.85875L0.315 0.2025L0.26625 0Z" sodipodi:nodetypes="ccccc"/><path id="shape11" transform="matrix(0.999999971989012 0 0 0.999999971989012 90.7575040058719 47.6025291991296)" fill="#60d56f" fill-rule="evenodd" stroke="#60d56f" stroke-width="0.24" stroke-linecap="square" stroke-linejoin="bevel" d="M0.0075 0L0.6525 0.0075L1.245 0.24L2.0475 0.9075L2.115 1.3875L1.7475 1.5L1.05 0.9675L0.3225 0.87L0.1275 0.675L0 0.3825Z" sodipodi:nodetypes="ccccccccccc"/><path id="shape12" transform="matrix(0.999999971989012 0 0 0.999999971989012 90.5100016293387 55.500024520167)" fill="#60d56f" fill-rule="evenodd" stroke="#60d56f" stroke-width="0.24" stroke-linecap="square" stroke-linejoin="bevel" d="M1.0875 0.09L0.4725 0.27L0.1275 0.585L0 0.765L0.5325 0.975L1.245 0.8775L1.5075 0.495L1.485 0.2025L1.32 0L1.0875 0.045L0.8025 0.195Z" sodipodi:nodetypes="cccccccccccc"/><path id="shape13" transform="matrix(0.999999971989012 0 0 0.999999971989012 93.2250016440628 54.8400245165872)" fill="#60d56f" fill-rule="evenodd" stroke="#60d56f" stroke-width="0.24" stroke-linecap="square" stroke-linejoin="bevel" d="M0.6 0L0.15 0.375L0 0.8325L0.0525 1.5675L0.1575 2.04Z" sodipodi:nodetypes="cccccc"/><path id="shape14" transform="matrix(0.999999971989012 0 0 0.999999971989012 92.212501638572 56.5575245259023)" fill="#60d56f" fill-rule="evenodd" stroke="#60d56f" stroke-width="0.24" stroke-linecap="square" stroke-linejoin="bevel" d="M0.6 0.675L0.135 0.7125L0.15 1.185L0.045 1.4775L0 1.53L0.5175 1.68L0.7575 2.205L1.38 2.1975L1.8225 2.1225L1.5075 1.605L1.4475 1.11L1.755 0.4875L1.665 0.045L1.5 0L1.17 0.3825Z" sodipodi:nodetypes="cccccccccccccccc"/><path id="shape15" transform="matrix(0.999999971989012 0 0 0.999999971989012 98.1450055716516 54.4350321047384)" fill="#60d56f" fill-rule="evenodd" stroke="#60d56f" stroke-width="0.24" stroke-linecap="square" stroke-linejoin="bevel" d="M8.05612 0.433196L6.63 0L4.575 0.405L3.615 0.375L3.39 1.095L2.805 1.65L2.22 1.275L1.725 1.14L0.765 1.185L0.105 1.8L0 2.775L0.69 3.12L1.365 3L1.74 3.045L1.575 4.125L1.365 4.98L1.455 5.355L2.34 5.535L2.865 5.205L3.405 4.905L4.35 4.8L3.945 3.81L4.455 3.45L5.16 3.165L5.805 3.24L6.81 3L7.635 2.625L7.77 2.205Z" sodipodi:nodetypes="ccccccccccccccccccccccccccccc"/><path id="shape16" transform="matrix(0.999999971989012 0 0 0.999999971989012 103.867671175201 58.6335698392482)" fill="#60d56f" fill-rule="evenodd" stroke="#60d56f" stroke-width="0.24" stroke-linecap="square" stroke-linejoin="bevel" d="M1.38946 0L0.53033 0.0106066L0.0636396 0.551543L0 0.975807L0.445477 1.46371L0.806102 1.53796L0.682329 1.72645L0.997329 1.03645L1.42128 0.222739L1.47432 0.0848528Z" sodipodi:nodetypes="ccccccccccc"/><path id="shape17" transform="matrix(0.999999971989012 0 0 0.999999971989012 91.484998060229 59.5050341162216)" fill="#60d56f" fill-rule="evenodd" stroke="#60d56f" stroke-width="0.24" stroke-linecap="square" stroke-linejoin="bevel" d="M12.24 2.61L11.79 2.28L11.52 1.935L11.235 1.77L10.725 2.235L10.185 2.715L9.54001 2.475L9.24001 2.07L8.95501 1.98L8.31001 1.95L7.65001 1.62L7.12501 1.335L6.91501 0.795L6.49501 0.345L6.25501 0.06L5.80501 0.345L5.43001 0.42L5.01001 0.015L4.12501 0L3.46501 0.075L1.71001 0.195L0.885008 0.12L0.285008 0.075L0 0.0299831L9.75 6.08998L11.445 4.185Z" sodipodi:nodetypes="ccccccccccccccccccccccccccc"/><path id="shape18" transform="matrix(0.999999971989012 0 0 0.999999971989012 97.9350065167729 58.7700340930827)" fill="#60d56f" fill-rule="evenodd" stroke="#60d56f" stroke-width="0.24" stroke-linecap="square" stroke-linejoin="bevel" d="M0.285 0L0 0.135L0.06 0.285Z" sodipodi:nodetypes="cccc"/><path id="shape19" transform="matrix(0.999999971989012 0 0 0.999999971989012 97.9650065177165 59.1000341034722)" fill="#60d56f" fill-rule="evenodd" stroke="#60d56f" stroke-width="0.24" stroke-linecap="square" stroke-linejoin="bevel" d="M0 0L0.0749877 0.157476Z" sodipodi:nodetypes="ccc"/><path id="shape20" transform="matrix(0.999999971989012 0 0 0.999999971989012 78.0830128263788 64.3611248550668)" fill="#60d56f" fill-rule="evenodd" stroke="#60d56f" stroke-width="0.24" stroke-linecap="square" stroke-linejoin="bevel" d="M8.73985 0.0424264L7.61555 0L6.87308 0.540937L6.16244 1.09248L5.35634 1.41068L3.94566 1.56978L2.33346 2.07889L1.75009 2.48194L0.0848528 4.91084L0 6.2897L0.0212132 8.24132L0.424264 10.0869L1.71827 10.8505L3.8608 11.7627L4.75176 12.2294L5.17602 12.9082L5.81242 13.778L6.34275 14.2447L6.55488 15.0508L6.44881 15.4538L5.45179 16.472L5.19723 17.0024L5.04874 17.7024L4.83662 19.6965L4.62449 21.0753L3.43655 21.9875L2.63045 22.73L2.24861 24.0027L1.69707 25.7634L1.33644 27.2696L0.86975 28.2878L0.742471 29.1576L0.466699 30.1546L0.27578 30.3667L0.169714 30.4091L0.954603 31.3849L1.69707 31.788L3.22442 32.0638L4.58206 32.382L4.90026 32.2547L7.14699 29.8689C7.95759 28.7562 8.13034 28.5233 10.4581 25.318L12.8764 20.545L13.777 16.4289L13.717 12.2889L13.117 9.55891L11.377 5.32891Z" sodipodi:nodetypes="cccccccccccccccccccccccccccccccccccccccccccccccc"/><path id="shape21" transform="matrix(0.999999971989012 0 0 0.999999971989012 47.4000048574923 64.0500340715928)" fill="#60d56f" fill-rule="evenodd" stroke="#60d56f" stroke-width="0.24" stroke-linecap="square" stroke-linejoin="bevel" d="M4.02 3.75001L4.47 4.92L3.45 6.36L1.86 8.25L1.28152 9.23125L0.454202 11.798L0.15 14.04L0 14.97L0.93 14.25L1.32 14.67L2.13 14.4L2.79 14.58L3.78 14.76L4.2 14.7L4.11 13.59L4.29 13.23L5.79 14.07L7.32 13.71L8.85 12.93L9.27 12.42L10.08 12.24L11.61 12.27L12.84 12.54L13.86 12.42L14.37 11.7L15.3 10.8L15.78 10.29L16.53 9.78L18.57 9.12L18.96 8.46L19.08 8.07L6.3 0Z" sodipodi:nodetypes="ccccccccccccccccccccccccccccccccc"/><path id="shape0" transform="translate(57.1199999999999, 119.4)" fill="none" stroke="#e99d45" stroke-width="10.8" stroke-linecap="square" stroke-linejoin="bevel" d="M10.0955 17.3004C8.49549 17.2804 7.21024 17.0379 5.73024 17.0179C-0.367949 14.2958 5.5751 16.6685 2.3951 15.0518C0.425975 13.4571 0.735277 11.9985 0 10.38L0.3 5.4C0.763455 4.67322 0.916548 4.02679 1.38 3.30001C1.58083 3.00027 1.73772 2.82815 2.01326 2.49357C2.30924 2.13417 2.54428 1.85118 2.76 1.5C3.28969 1.23897 4.30031 0.681043 4.98 0.480006C5.72031 0.261043 6.45969 0.218964 7.2 0L13.2 0.06L15.8655 0.0752592" sodipodi:nodetypes="cccccccccccc"/><path id="shape1" transform="matrix(-1 0 0 1 99.3600000000001 119.4)" fill="none" stroke="#e99d45" stroke-width="10.8" stroke-linecap="square" stroke-linejoin="bevel" d="M10.0955 17.3004C8.49549 17.2804 7.21024 17.0379 5.73024 17.0179C-0.367949 14.2958 5.5751 16.6685 2.3951 15.0518C0.425975 13.4571 0.735277 11.9985 0 10.38L0.3 5.4C0.763455 4.67322 0.916548 4.02679 1.38 3.30001C1.58083 3.00027 1.73772 2.82815 2.01326 2.49357C2.30924 2.13417 2.54428 1.85118 2.76 1.5C3.28969 1.23897 4.30031 0.681043 4.98 0.480006C5.72031 0.261043 6.45969 0.218964 7.2 0L13.2 0.06L15.8655 0.0752592" sodipodi:nodetypes="cccccccccccc"/><path id="shape2" transform="translate(74.6580492953512, 111.145124796842)" fill="none" stroke="#e19237" stroke-width="4.8" stroke-linecap="square" stroke-linejoin="bevel" d="M0 14.8917L0.0848528 0" sodipodi:nodetypes="cc"/><path id="shape3" transform="translate(81.7207343406879, 111.157551192829)" fill="none" stroke="#e19237" stroke-width="4.8" stroke-linecap="square" stroke-linejoin="bevel" d="M0 14.8917L0.0848528 0" sodipodi:nodetypes="cc"/><path id="shape03" transform="matrix(0.999999951479889 0 0 0.999999951479889 50.9089088011463 28.4365826663317)" fill="none" stroke="#f2aa56" stroke-width="9.6" stroke-linecap="square" stroke-linejoin="bevel" d="M44.6326 0C53.219 5.5385 61.8414 14.1474 64.3184 24.2679C67.4417 37.1707 65.0984 47.6821 60.4152 57.3605C53.182 68.9584 41.1743 77.3278 31.9047 78.7434C21.6016 81.7402 7.7575 78.6317 0 73.3128" sodipodi:nodetypes="ccccc"/>
</svg>
