<?xml version="1.0" standalone="no"?>
<!DOCTYPE svg PUBLIC "-//W3C//DTD SVG 20010904//EN" "http://www.w3.org/TR/2001/REC-SVG-20010904/DTD/svg10.dtd">
<!-- Created using Krita: https://krita.org -->
<svg xmlns="http://www.w3.org/2000/svg" 
    xmlns:xlink="http://www.w3.org/1999/xlink"
    xmlns:krita="http://krita.org/namespaces/svg/krita"
    xmlns:sodipodi="http://sodipodi.sourceforge.net/DTD/sodipodi-0.dtd"
    width="162.72pt"
    height="165.12pt"
    viewBox="0 0 162.72 165.12">
<defs/>
<rect id="shape0" transform="matrix(0.999999956985286 0 0 0.999999956985286 -0.240001796120175 -0.239979944123551)" fill="#343436" fill-rule="evenodd" stroke-opacity="0" stroke="#000000" stroke-width="0" stroke-linecap="square" stroke-linejoin="bevel" width="163.44" height="165.84"/><path id="shape0" transform="translate(52.0626147381228, 41.4586846631486)" fill="none" stroke="#539db4" stroke-width="9.6" stroke-linecap="square" stroke-linejoin="bevel" d="M41.4028 13.7381C44.5415 8.98064 43.9123 3.04433 39.1374 0.721318C37.0623 -0.308866 30.3455 -1.50713 26.7656 6.99227C25.7693 10.9776 25.0107 13.4744 27.4445 19.5505C34.2019 30.9978 39.1007 37.9357 31.3974 47.9413C28.6861 51.7009 24.5135 54.9211 19.8774 54.3613C10.2428 54.8562 1.52973 47.3648 0.137388 39.1813C-0.455573 35.6962 0.934785 32.4348 3.07739 29.0413" sodipodi:nodetypes="cccccccc"/><path id="shape1" transform="translate(57.2756509415691, 37.7829724323293)" fill="none" stroke="#539db4" stroke-width="9.6" stroke-linecap="square" stroke-linejoin="bevel" d="M42.6244 21.617C44.2408 19.167 45.5073 15.3147 42.6244 10.997C41.3601 9.10357 39.359 7.01642 37.2504 5.27983C34.8305 3.28688 32.2952 1.73511 31.0137 1.12204C27.1567 0.134286 19.9989 -1.9892 15.1887 4.64344C14.4614 6.72456 10.8239 9.84148 12.3244 17.657C13.6109 22.3544 15.9406 26.3186 17.7844 30.617C18.6728 32.2815 19.6505 34.8428 20.1844 36.797C19.9977 37.575 20.3791 40.2094 18.1444 45.557C15.793 49.6767 15.3275 51.0237 12.3885 53.349C4.36612 56.2197 0.968078 52.4532 0 47.3244C0.487039 42.7593 2.3546 40.281 4.4972 36.8875" sodipodi:nodetypes="cccccccccccc"/><path id="shape2" transform="translate(76.0800020380601, 74.7000020010921)" fill="none" stroke="#539db4" stroke-width="9.6" stroke-linecap="square" stroke-linejoin="bevel" d="M5.34 0C8.25667 8.75 0 13.5913 0 17.46" sodipodi:nodetypes="cc"/><path id="shape3" transform="translate(57.2756480160971, 97.1988960036136)" fill="none" stroke="#539db4" stroke-width="7.68" stroke-linecap="square" stroke-linejoin="miter" stroke-miterlimit="2" d="M0 1.10309L0.721249 0" sodipodi:nodetypes="cc"/><path id="shape4" transform="translate(95.713970524584, 36.2745765950884)" fill="none" stroke="#539db4" stroke-width="7.68" stroke-linecap="square" stroke-linejoin="miter" stroke-miterlimit="2" d="M0 1.18794L0.890955 0" sodipodi:nodetypes="cc"/><path id="shape01" transform="matrix(0.999999956985286 0 0 0.999999956985286 81.0383016464969 33.6337959343416)" fill="#60d56f" fill-rule="evenodd" stroke="#60d56f" stroke-width="1.2" stroke-linecap="square" stroke-linejoin="bevel" d="M1.60555 0L1.7607 1.10309L1.7607 2.10011L2.26981 2.94863L2.03647 3.96687L1.80312 4.03051L1.95161 4.9851L0.933381 5.68514L0.148492 6.66095L0 7.33977L0.190919 8.44285L0.615183 9.82171L1.4425 9.29138L1.99404 8.84591L3.0547 8.54892L4.07293 8.84591L5.43058 8.63377L6.13062 8.48528L7.14885 8.65499L7.99738 9.1641L9.10046 9.4823L9.67322 9.90657L9.4823 8.93076L10.0763 8.80348L10.3308 8.97318L9.99142 8.0398L10.6915 7.63675L10.8612 7.33977L12.2612 7.72161L13.1522 8.59135L13.2583 7.50947L13.0673 6.93672L13.6825 6.7458L14.3401 6.93672L14.425 6.27911L14.722 6.04576L15.6553 6.00334L15.5917 5.34573L16.8009 5.45179L17.7767 5.89727L14.722 4.53963C14.3048 4.26385 13.8876 3.98808 13.4704 3.71231C12.0482 2.85402 12.9856 2.55784 15.5002 1.77131C14.3794 1.56237 13.5479 1.43923 12.4271 1.30435C12.255 3.36059 10.671 2.40425 8.69355 1.36799C7.71421 1.03211 6.39268 0.823806 5.41333 0.487931C4.17457 0.254576 2.84431 0.233354 1.60555 0Z" sodipodi:nodetypes="ccccccccccccccccccccccccccccccccccccccccccccccc"/><path id="shape1" transform="matrix(0.999999956985286 0 0 0.999999956985286 72.7691137232956 34.6732610352573)" fill="#60d56f" fill-rule="evenodd" stroke="#60d56f" stroke-width="1.2" stroke-linecap="square" stroke-linejoin="bevel" d="M3.27744 0L2.25921 0.403052L2.70468 1.21976L3.66988 2.25921L3.57442 2.48195L2.47134 1.27279L1.89858 1.21976L1.56978 1.75009L1.73948 2.90621L1.66524 3.42593L1.18794 2.21678L0.731856 2.13193L0.763675 2.90621L0.795495 3.34108L0.403051 2.52437L0 1.86676L0.19089 1.66428L0.859134 1.08187L0.997021 2.29103L1.46371 1.59099L1.87737 1.14551L2.33345 0.975808L1.86676 0.551544L2.5668 0.201526Z" sodipodi:nodetypes="ccccccccccccccccccccccccc"/><path id="shape2" transform="matrix(0.999999956985286 0 0 0.999999956985286 65.4149994125397 36.9958258817791)" fill="#60d56f" fill-rule="evenodd" stroke="#60d56f" stroke-width="0.24" stroke-linecap="square" stroke-linejoin="bevel" d="M5.88 0.174202L6.24 0.729202L6.45 1.3442L6.225 1.8092L6.195 2.3642L6.48 3.0842L7.02 3.5042L7.77 3.5642L8.13 3.4592L8.175 4.3892L8.1 5.2742L8.205 6.0092L8.61 6.6842L8.685 6.9242L7.935 6.9392L7.74 7.3442L7.95 7.6142L8.475 7.7792L8.805 7.9742L9 8.1242L8.73 8.5742L8.385 8.5442L6.975 8.1242L5.61 7.4792L4.695 7.0142L3.285 7.0442L2.565 7.4192L2.97 7.8392L3.93 7.8842L4.755 7.8692L4.485 8.0192L4.05 8.0792L3.99 8.4692L4.065 8.8892L4.44 9.3542L4.35 9.4142L3.645 9.1142L2.715 8.8592L1.725 8.7992L1.305 8.9792L0.63 9.4142L0 9.3242L1.13082 6.51245L2.78545 3.58503L4.27037 1.40007L5.7553 0L5.79 0.114202Z" sodipodi:nodetypes="cccccccccccccccccccccccccccccccccccccccccccccccc"/><path id="shape3" transform="matrix(0.999999956985286 0 0 0.999999956985286 90.059999455148 43.2975283081719)" fill="#60d56f" fill-rule="evenodd" stroke="#60d56f" stroke-width="0.24" stroke-linecap="square" stroke-linejoin="bevel" d="M0 0.45L0.9075 1.26L1.05 1.1625L0.51 0.525L0.21 0Z" sodipodi:nodetypes="cccccc"/><path id="shape4" transform="matrix(0.999999956985286 0 0 0.999999956985286 91.0499994411035 42.7350283161517)" fill="#60d56f" fill-rule="evenodd" stroke="#60d56f" stroke-width="0.24" stroke-linecap="square" stroke-linejoin="bevel" d="M0 0.1425L0.885 0.9675L1.1925 1.44L0.255 0L0.24 0Z" sodipodi:nodetypes="cccccc"/><path id="shape5" transform="matrix(0.999999956985286 0 0 0.999999956985286 90.922499900321 42.7800283155141)" fill="#60d56f" fill-rule="evenodd" stroke="#60d56f" stroke-width="0.24" stroke-linecap="square" stroke-linejoin="bevel" d="M0.375 0L0 0.135001Z" sodipodi:nodetypes="ccc"/><path id="shape6" transform="matrix(0.999999956985286 0 0 0.999999956985286 69.1787703594511 46.9132601000362)" fill="#60d56f" fill-rule="evenodd" stroke="#60d56f" stroke-width="0.24" stroke-linecap="square" stroke-linejoin="bevel" d="M0 0L0.880348 0.0212132Z" sodipodi:nodetypes="ccc"/><path id="shape7" transform="matrix(0.999999956985286 0 0 0.999999956985286 71.1409915276137 45.1790808514165)" fill="#60d56f" fill-rule="evenodd" stroke="#60d56f" stroke-width="0.24" stroke-linecap="square" stroke-linejoin="bevel" d="M0 0L0.270468 0.360624Z" sodipodi:nodetypes="ccc"/><path id="shape8" transform="matrix(0.999999956985286 0 0 0.999999956985286 72.4986364439652 46.3882333550412)" fill="#60d56f" fill-rule="evenodd" stroke="#60d56f" stroke-width="0.24" stroke-linecap="square" stroke-linejoin="bevel" d="M0 0.318198L0.365928 0.763675L0.965201 1.06596L1.07657 1.59629L1.15612 1.75539L1.41598 1.25688L1.30992 0.763675L0.848528 0.238649L0.917471 0.053033L0.641699 0L0.0477297 0.281075Z" sodipodi:nodetypes="cccccccccccc"/><path id="shape9" transform="matrix(0.999999956985286 0 0 0.999999956985286 79.9179630492279 39.9023160905691)" fill="#60d56f" fill-rule="evenodd" stroke="#60d56f" stroke-width="0.24" stroke-linecap="square" stroke-linejoin="bevel" d="M0.837922 0L0 0.307591L0.318198 0.604576L0.296985 0.933381L0.0318198 1.54856L0.159099 2.47134L0.371231 3.2138L0.837922 4.0199L1.21976 4.48659L1.80312 4.21082L2.01525 3.77595L1.4425 2.06829Z" sodipodi:nodetypes="ccccccccccccc"/><path id="shape10" transform="matrix(0.999999956985286 0 0 0.999999956985286 95.3025080007051 36.0150445782129)" fill="#60d56f" fill-rule="evenodd" stroke="#60d56f" stroke-width="0.24" stroke-linecap="square" stroke-linejoin="bevel" d="M0 0.285L0.67875 0.85875L0.315 0.2025L0.26625 0Z" sodipodi:nodetypes="ccccc"/><path id="shape11" transform="matrix(0.999999956985286 0 0 0.999999956985286 90.7575026441712 47.6025346064343)" fill="#60d56f" fill-rule="evenodd" stroke="#60d56f" stroke-width="0.24" stroke-linecap="square" stroke-linejoin="bevel" d="M0.0075 0L0.6525 0.0075L1.245 0.24L2.0475 0.9075L2.115 1.3875L1.7475 1.5L1.05 0.9675L0.3225 0.87L0.1275 0.675L0 0.3825Z" sodipodi:nodetypes="ccccccccccc"/><path id="shape12" transform="matrix(0.999999956985286 0 0 0.999999956985286 90.5100002713515 55.5000298089798)" fill="#60d56f" fill-rule="evenodd" stroke="#60d56f" stroke-width="0.24" stroke-linecap="square" stroke-linejoin="bevel" d="M1.0875 0.09L0.4725 0.27L0.1275 0.585L0 0.765L0.5325 0.975L1.245 0.8775L1.5075 0.495L1.485 0.2025L1.32 0L1.0875 0.045L0.8025 0.195Z" sodipodi:nodetypes="cccccccccccc"/><path id="shape13" transform="matrix(0.999999956985286 0 0 0.999999956985286 93.2250002453404 54.8400298153026)" fill="#60d56f" fill-rule="evenodd" stroke="#60d56f" stroke-width="0.24" stroke-linecap="square" stroke-linejoin="bevel" d="M0.6 0L0.15 0.375L0 0.8325L0.0525 1.5675L0.1575 2.04Z" sodipodi:nodetypes="cccccc"/><path id="shape14" transform="matrix(0.999999956985286 0 0 0.999999956985286 92.212500255041 56.5575297988487)" fill="#60d56f" fill-rule="evenodd" stroke="#60d56f" stroke-width="0.24" stroke-linecap="square" stroke-linejoin="bevel" d="M0.6 0.675L0.135 0.7125L0.15 1.185L0.045 1.4775L0 1.53L0.5175 1.68L0.7575 2.205L1.38 2.1975L1.8225 2.1225L1.5075 1.605L1.4475 1.11L1.755 0.4875L1.665 0.045L1.5 0L1.17 0.3825Z" sodipodi:nodetypes="cccccccccccccccc"/><path id="shape15" transform="matrix(0.999999956985286 0 0 0.999999956985286 98.1450040991108 54.4350374095301)" fill="#60d56f" fill-rule="evenodd" stroke="#60d56f" stroke-width="0.24" stroke-linecap="square" stroke-linejoin="bevel" d="M8.05612 0.433196L6.63 0L4.575 0.405L3.615 0.375L3.39 1.095L2.805 1.65L2.22 1.275L1.725 1.14L0.765 1.185L0.105 1.8L0 2.775L0.69 3.12L1.365 3L1.74 3.045L1.575 4.125L1.365 4.98L1.455 5.355L2.34 5.535L2.865 5.205L3.405 4.905L4.35 4.8L3.945 3.81L4.455 3.45L5.16 3.165L5.805 3.24L6.81 3L7.635 2.625L7.77 2.205Z" sodipodi:nodetypes="ccccccccccccccccccccccccccccc"/><path id="shape16" transform="matrix(0.999999956985286 0 0 0.999999956985286 103.867669616799 58.6335750810462)" fill="#60d56f" fill-rule="evenodd" stroke="#60d56f" stroke-width="0.24" stroke-linecap="square" stroke-linejoin="bevel" d="M1.38946 0L0.53033 0.0106066L0.0636396 0.551543L0 0.975807L0.445477 1.46371L0.806102 1.53796L0.682329 1.72645L0.997329 1.03645L1.42128 0.222739L1.47432 0.0848528Z" sodipodi:nodetypes="ccccccccccc"/><path id="shape17" transform="matrix(0.999999956985286 0 0 0.999999956985286 91.5243649535529 59.5050393449444)" fill="#60d56f" fill-rule="evenodd" stroke="#60d56f" stroke-width="0.24" stroke-linecap="square" stroke-linejoin="bevel" d="M12.2006 2.61L11.7506 2.28L11.4806 1.935L11.1956 1.77L10.6856 2.235L10.1456 2.715L9.50064 2.475L9.20064 2.07L8.91564 1.98L8.27064 1.95L7.61064 1.62L7.08564 1.335L6.87564 0.795L6.45564 0.345L6.21564 0.06L5.76564 0.345L5.39064 0.42L4.97064 0.015L4.08564 0L3.42564 0.075L1.67064 0.195L0.84564 0.12L0.24564 0.075L0 0.0192087L9.68064 6.31496L11.2856 4.01996Z" sodipodi:nodetypes="ccccccccccccccccccccccccccc"/><path id="shape18" transform="matrix(0.999999956985286 0 0 0.999999956985286 97.9350050473829 58.7700393328333)" fill="#60d56f" fill-rule="evenodd" stroke="#60d56f" stroke-width="0.24" stroke-linecap="square" stroke-linejoin="bevel" d="M0.285 0L0 0.135L0.06 0.285Z" sodipodi:nodetypes="cccc"/><path id="shape19" transform="matrix(0.999999956985286 0 0 0.999999956985286 97.9650050478765 59.1000393382716)" fill="#60d56f" fill-rule="evenodd" stroke="#60d56f" stroke-width="0.24" stroke-linecap="square" stroke-linejoin="bevel" d="M0 0L0.0749877 0.157476Z" sodipodi:nodetypes="ccc"/><path id="shape20" transform="matrix(0.999999956985286 0 0 0.999999956985286 78.0830116548427 64.3611300109302)" fill="#60d56f" fill-rule="evenodd" stroke="#60d56f" stroke-width="0.24" stroke-linecap="square" stroke-linejoin="bevel" d="M8.85699 0.0938703L7.61555 0L6.87308 0.540937L6.16244 1.09248L5.35634 1.41068L3.94566 1.56978L2.33346 2.07889L1.75009 2.48194L0.0848528 4.91084L0 6.2897L0.0212132 8.24132L0.424264 10.0869L1.71827 10.8505L3.8608 11.7627L4.75176 12.2294L5.17602 12.9082L5.81242 13.778L6.34275 14.2447L6.55488 15.0508L6.44881 15.4538L5.45179 16.472L5.19723 17.0024L5.04874 17.7024L4.83662 19.6965L4.62449 21.0753L3.43655 21.9875L2.63045 22.73L2.24861 24.0027L1.69707 25.7634L1.33644 27.2696L0.86975 28.2878L0.742471 29.1576L0.466699 30.1546L0.27578 30.3667L0.169714 30.4091L0.954603 31.3849L1.69707 31.788L3.22442 32.0638L4.58206 32.382L4.90026 32.2547L7.51227 29.7937C8.32287 28.681 8.17557 29.1064 10.5033 25.9011L12.614 21.8599L13.91 16.8494C13.8707 15.3642 13.8313 13.879 13.792 12.3939L13.177 9.55888L11.557 5.26887Z" sodipodi:nodetypes="cccccccccccccccccccccccccccccccccccccccccccccccc"/><path id="shape21" transform="matrix(0.999999956985286 0 0 0.999999956985286 47.4000041463157 64.0500392321237)" fill="#60d56f" fill-rule="evenodd" stroke="#60d56f" stroke-width="0.24" stroke-linecap="square" stroke-linejoin="bevel" d="M4.02 3.75001L4.47 4.92L3.45 6.36L1.86 8.25L1.28152 9.23125L0.454202 11.798L0.15 14.04L0 14.97L0.93 14.25L1.32 14.67L2.13 14.4L2.79 14.58L3.78 14.76L4.2 14.7L4.11 13.59L4.29 13.23L5.79 14.07L7.32 13.71L8.85 12.93L9.27 12.42L10.08 12.24L11.61 12.27L12.84 12.54L13.86 12.42L14.37 11.7L15.3 10.8L15.78 10.29L16.53 9.78L18.57 9.12L18.96 8.46L19.08 8.07L6.3 0Z" sodipodi:nodetypes="ccccccccccccccccccccccccccccccccc"/><path id="shape02" transform="matrix(0.999999984996274 0 0 0.999999984996274 57.1199991429871 119.400004330076)" fill="none" stroke="#e99d45" stroke-width="10.8" stroke-linecap="square" stroke-linejoin="bevel" d="M10.0955 17.3004C8.49549 17.2804 7.21024 17.0379 5.73024 17.0179C-0.367949 14.2958 5.5751 16.6685 2.3951 15.0518C0.425975 13.4571 0.735277 11.9985 0 10.38L0.3 5.4C0.763455 4.67322 0.916548 4.02679 1.38 3.30001C1.58083 3.00027 1.73772 2.82815 2.01326 2.49357C2.30924 2.13417 2.54428 1.85118 2.76 1.5C3.28969 1.23897 4.30031 0.681043 4.98 0.480006C5.72031 0.261043 6.45969 0.218964 7.2 0L13.2 0.06L15.8655 0.0752592" sodipodi:nodetypes="cccccccccccc"/><path id="shape11" transform="matrix(-0.999999984996274 0 0 0.999999984996274 99.3599985092299 119.400004330076)" fill="none" stroke="#e99d45" stroke-width="10.8" stroke-linecap="square" stroke-linejoin="bevel" d="M10.0955 17.3004C8.49549 17.2804 7.21024 17.0379 5.73024 17.0179C-0.367949 14.2958 5.5751 16.6685 2.3951 15.0518C0.425975 13.4571 0.735277 11.9985 0 10.38L0.3 5.4C0.763455 4.67322 0.916548 4.02679 1.38 3.30001C1.58083 3.00027 1.73772 2.82815 2.01326 2.49357C2.30924 2.13417 2.54428 1.85118 2.76 1.5C3.28969 1.23897 4.30031 0.681043 4.98 0.480006C5.72031 0.261043 6.45969 0.218964 7.2 0L13.2 0.06L15.8655 0.0752592" sodipodi:nodetypes="cccccccccccc"/><path id="shape03" transform="matrix(0.999999984996274 0 0 0.999999984996274 74.6580481752024 111.145129250772)" fill="none" stroke="#e19237" stroke-width="4.8" stroke-linecap="square" stroke-linejoin="bevel" d="M0 14.8917L0.0848528 0" sodipodi:nodetypes="cc"/><path id="shape12" transform="matrix(0.999999984996274 0 0 0.999999984996274 81.7207331145725 111.157555646571)" fill="none" stroke="#e19237" stroke-width="4.8" stroke-linecap="square" stroke-linejoin="bevel" d="M0 14.8917L0.0848528 0" sodipodi:nodetypes="cc"/><path id="shape04" transform="matrix(0.999999936476164 0 0 0.999999936476164 50.9089080373231 28.4365883611971)" fill="none" stroke="#f2aa56" stroke-width="9.6" stroke-linecap="square" stroke-linejoin="bevel" d="M44.6326 0C53.219 5.5385 61.8414 14.1474 64.3184 24.2679C67.4417 37.1707 65.0984 47.6821 60.4152 57.3605C53.182 68.9584 41.1743 77.3278 31.9047 78.7434C21.6016 81.7402 7.7575 78.6317 0 73.3128" sodipodi:nodetypes="ccccc"/>
</svg>
